<?xml version="1.0" encoding="UTF-8"?>
<svg xmlns="http://www.w3.org/2000/svg" xmlns:xlink="http://www.w3.org/1999/xlink" width="17px" height="17px" viewBox="0 0 17 17" version="1.1">
<g id="surface1">
<path style=" stroke:none;fill-rule:nonzero;fill:rgb(0%,0%,0%);fill-opacity:1;" d="M 16.679688 6.335938 C 16.808594 6.230469 17 6.328125 17 6.492188 L 17 13.28125 C 17 14.160156 16.285156 14.875 15.40625 14.875 L 1.59375 14.875 C 0.714844 14.875 0 14.160156 0 13.28125 L 0 6.496094 C 0 6.328125 0.1875 6.234375 0.320312 6.339844 C 1.066406 6.917969 2.050781 7.648438 5.4375 10.109375 C 6.140625 10.621094 7.320312 11.699219 8.5 11.691406 C 9.683594 11.699219 10.890625 10.601562 11.566406 10.109375 C 14.953125 7.648438 15.933594 6.914062 16.679688 6.335938 Z M 8.5 10.625 C 9.269531 10.636719 10.378906 9.65625 10.9375 9.25 C 15.34375 6.054688 15.679688 5.773438 16.695312 4.976562 C 16.886719 4.828125 17 4.59375 17 4.351562 L 17 3.71875 C 17 2.839844 16.285156 2.125 15.40625 2.125 L 1.59375 2.125 C 0.714844 2.125 0 2.839844 0 3.71875 L 0 4.351562 C 0 4.59375 0.113281 4.824219 0.304688 4.976562 C 1.320312 5.769531 1.65625 6.054688 6.0625 9.25 C 6.621094 9.65625 7.730469 10.636719 8.5 10.625 Z M 8.5 10.625 "/>
</g>
</svg>
